<?xml version="1.0" standalone="no"?>
<!DOCTYPE svg PUBLIC "-//W3C//DTD SVG 20010904//EN"
 "http://www.w3.org/TR/2001/REC-SVG-20010904/DTD/svg10.dtd">
<svg version="1.0" xmlns="http://www.w3.org/2000/svg"
 width="40.000000pt" height="40.000000pt" viewBox="0 0 40.000000 40.000000"
 preserveAspectRatio="xMidYMid meet">

<g transform="translate(0.000000,40.000000) scale(0.100000,-0.100000)"
fill="#000000" stroke="none">
<path d="M210 388 c70 -20 112 -42 132 -70 25 -35 36 -30 13 6 -21 32 -109 76
-149 75 l-31 -1 35 -10z"/>
<path d="M125 356 c-124 -54 -127 -244 -5 -306 40 -20 130 -28 130 -11 0 5 14
12 31 16 26 6 36 2 65 -26 50 -48 73 -25 25 25 -28 29 -32 39 -26 65 4 17 11
31 16 31 5 0 9 21 9 48 -1 125 -130 208 -245 158z m100 -26 c15 -29 15 -29
-19 -45 -19 -9 -44 -15 -57 -13 -12 2 -26 -4 -32 -14 -9 -14 -6 -22 12 -42 21
-22 22 -27 10 -54 -9 -21 -18 -28 -31 -24 -10 2 -18 8 -18 12 0 5 -11 21 -24
37 -22 27 -23 31 -11 67 17 49 41 74 91 91 55 20 62 19 79 -15z m104 -44 c21
-33 28 -66 14 -66 -5 1 -21 11 -36 24 -23 18 -27 28 -22 49 9 36 19 34 44 -7z
m-19 -106 c26 -26 26 -64 0 -90 -40 -40 -110 -11 -110 45 0 32 33 65 65 65 14
0 34 -9 45 -20z m-165 -110 c-3 -5 -1 -10 4 -10 6 0 11 5 11 11 0 5 5 7 10 4
6 -3 10 -10 10 -16 0 -14 -34 -11 -56 6 -18 14 -18 14 4 15 13 0 20 -4 17 -10z
m220 -30 c10 -11 16 -20 13 -20 -3 0 -13 9 -23 20 -10 11 -16 20 -13 20 3 0
13 -9 23 -20z"/>
<path d="M205 310 c-3 -5 -1 -10 4 -10 6 0 11 5 11 10 0 6 -2 10 -4 10 -3 0
-8 -4 -11 -10z"/>
<path d="M105 290 c-3 -5 -1 -10 4 -10 6 0 11 5 11 10 0 6 -2 10 -4 10 -3 0
-8 -4 -11 -10z"/>
<path d="M110 180 c0 -5 5 -10 10 -10 6 0 10 5 10 10 0 6 -4 10 -10 10 -5 0
-10 -4 -10 -10z"/>
<path d="M227 172 c-33 -36 -8 -92 40 -92 25 0 53 30 53 57 0 46 -62 69 -93
35z m73 -35 c0 -17 -20 -37 -37 -37 -7 0 -17 9 -23 19 -14 28 13 55 41 41 10
-6 19 -16 19 -23z"/>
<path d="M4 164 c8 -44 49 -109 74 -119 12 -5 11 0 -5 17 -27 30 -53 82 -53
107 0 11 -5 23 -11 27 -9 5 -10 -4 -5 -32z"/>
</g>
</svg>
